<?xml version="1.0" ?><svg height="60px" version="1.1" viewBox="0 0 60 60" width="60px" xmlns="http://www.w3.org/2000/svg" xmlns:xlink="http://www.w3.org/1999/xlink"><title/><desc/><defs/><g fill="none" fill-rule="evenodd" id="People" stroke="none" stroke-width="1"><g fill="#000000" id="Icon-56"><path d="M30,40 C24.486,40 20,35.514 20,30 C20,24.486 24.486,20 30,20 C35.514,20 40,24.486 40,30 C40,35.514 35.514,40 30,40 L30,40 Z M30,18 C23.383,18 18,23.383 18,30 C18,36.617 23.383,42 30,42 C36.617,42 42,36.617 42,30 C42,23.383 36.617,18 30,18 L30,18 Z M46,14 L52,14 L52,8 L46,8 L46,14 Z M45,16 L53,16 C53.552,16 54,15.553 54,15 L54,7 C54,6.447 53.552,6 53,6 L45,6 C44.448,6 44,6.447 44,7 L44,15 C44,15.553 44.448,16 45,16 L45,16 Z M55,58 L5,58 C3.346,58 2,56.654 2,55 L2,24 L15.178,24 C14.424,25.855 14,27.878 14,30 C14,38.822 21.178,46 30,46 C38.822,46 46,38.822 46,30 C46,28.923 45.892,27.846 45.679,26.801 C45.569,26.259 45.042,25.911 44.5,26.021 C43.958,26.13 43.609,26.658 43.719,27.199 C43.906,28.114 44,29.057 44,30 C44,37.72 37.72,44 30,44 C22.28,44 16,37.72 16,30 C16,22.28 22.28,16 30,16 C35.204,16 39.948,18.859 42.383,23.464 C42.406,23.507 42.443,23.534 42.471,23.572 C42.513,23.631 42.552,23.688 42.605,23.736 C42.65,23.775 42.699,23.803 42.749,23.833 C42.809,23.871 42.867,23.908 42.935,23.933 C42.99,23.952 43.048,23.957 43.106,23.967 C43.162,23.977 43.212,24 43.27,24 L58,24 L58,55 C58,56.654 56.654,58 55,58 L55,58 Z M5,2 L6,2 L6,19 C6,19.553 6.448,20 7,20 C7.552,20 8,19.553 8,19 L8,2 L10,2 L10,19 C10,19.553 10.448,20 11,20 C11.552,20 12,19.553 12,19 L12,2 L14,2 L14,19 C14,19.553 14.448,20 15,20 C15.552,20 16,19.553 16,19 L16,2 L55,2 C56.654,2 58,3.346 58,5 L58,22 L43.848,22 C40.989,17.053 35.743,14 30,14 C24.093,14 18.937,17.226 16.165,22 L2,22 L2,5 C2,3.346 3.346,2 5,2 L5,2 Z M55,0 L5,0 C2.243,0 0,2.243 0,5 L0,55 C0,57.757 2.243,60 5,60 L55,60 C57.757,60 60,57.757 60,55 L60,5 C60,2.243 57.757,0 55,0 L55,0 Z" id="social-instagram"/></g></g></svg>