<?xml version="1.0" ?><svg enable-background="new 0 0 100 100" id="Livello_1" version="1.1" viewBox="0 0 100 100" xml:space="preserve" xmlns="http://www.w3.org/2000/svg" xmlns:xlink="http://www.w3.org/1999/xlink"><path d="M21.858,84.642h56.284c3.584,0,6.5-2.916,6.5-6.5V21.858c0-3.584-2.916-6.5-6.5-6.5H21.858c-3.584,0-6.5,2.916-6.5,6.5  v56.284C15.358,81.726,18.274,84.642,21.858,84.642z M16.358,21.858c0-3.033,2.467-5.5,5.5-5.5h56.284c3.033,0,5.5,2.467,5.5,5.5  v56.284c0,3.033-2.467,5.5-5.5,5.5H21.858c-3.033,0-5.5-2.467-5.5-5.5V21.858z"/><path d="M26.682,64.903c4.417,2.832,9.522,4.328,14.767,4.328c10.311,0,16.759-4.86,20.352-8.937  c4.484-5.087,7.056-11.819,7.056-18.471c0-0.327-0.005-0.653-0.017-0.977c1.809-1.344,3.364-2.979,4.625-4.864  c0.124-0.185,0.11-0.43-0.033-0.6c-0.144-0.17-0.381-0.224-0.585-0.135c-1.054,0.468-2.15,0.834-3.275,1.096  c1.234-1.154,2.161-2.606,2.68-4.23c0.063-0.198-0.002-0.414-0.165-0.543c-0.163-0.129-0.389-0.145-0.566-0.039  c-1.736,1.03-3.612,1.763-5.582,2.181c-1.862-1.873-4.423-2.942-7.072-2.942c-5.491,0-9.958,4.467-9.958,9.957  c0,0.544,0.043,1.085,0.129,1.616c-7.197-0.538-13.906-4.034-18.49-9.658c-0.104-0.127-0.26-0.198-0.427-0.183  c-0.164,0.013-0.311,0.105-0.393,0.247c-0.882,1.514-1.348,3.245-1.348,5.007c0,2.726,1.106,5.293,3.024,7.152  c-0.823-0.188-1.619-0.491-2.357-0.901c-0.152-0.085-0.339-0.084-0.491,0.003c-0.152,0.087-0.248,0.247-0.252,0.422l-0.001,0.131  c0,3.984,2.386,7.527,5.907,9.1c-0.662,0.021-1.333-0.029-1.999-0.155c-0.17-0.03-0.351,0.028-0.468,0.16  c-0.117,0.132-0.155,0.316-0.102,0.484c1.159,3.619,4.258,6.221,7.939,6.797c-3.065,2.076-6.625,3.167-10.375,3.167  c-0.734,0-1.474-0.043-2.197-0.129c-0.223-0.025-0.45,0.109-0.529,0.328C26.402,64.533,26.486,64.777,26.682,64.903z M41.262,60.959  c0.167-0.13,0.233-0.352,0.166-0.552s-0.253-0.337-0.465-0.341c-3.56-0.066-6.712-2.224-8.082-5.451  c1.234,0.127,2.465,0.023,3.641-0.296c0.224-0.061,0.376-0.268,0.368-0.499c-0.008-0.232-0.174-0.428-0.401-0.474  c-3.933-0.79-6.846-4.129-7.158-8.081c1.176,0.524,2.454,0.82,3.741,0.861c0.217,0.023,0.424-0.134,0.492-0.347  s-0.013-0.444-0.198-0.568c-2.495-1.667-3.985-4.455-3.985-7.456c0-1.342,0.301-2.664,0.875-3.864  c4.884,5.667,11.903,9.115,19.374,9.49c0.151,0.001,0.308-0.059,0.409-0.179c0.101-0.121,0.139-0.281,0.103-0.434  c-0.154-0.662-0.232-1.349-0.232-2.042c0-4.939,4.019-8.957,8.958-8.957c2.468,0,4.852,1.031,6.539,2.829  c0.118,0.125,0.292,0.18,0.461,0.148c1.714-0.338,3.363-0.9,4.92-1.678c-0.758,1.521-1.943,2.806-3.426,3.695  c-0.203,0.121-0.292,0.367-0.216,0.59c0.077,0.224,0.309,0.362,0.532,0.335c1.351-0.162,2.673-0.461,3.949-0.894  c-1.041,1.288-2.243,2.427-3.588,3.398c-0.137,0.099-0.215,0.26-0.207,0.428c0.018,0.397,0.027,0.798,0.027,1.2  c0,16.53-13.427,26.408-26.408,26.408c-4.357,0-8.617-1.073-12.435-3.118C33.49,65.157,37.742,63.718,41.262,60.959z"/></svg>