<svg id="Layer_1" data-name="Layer 1" xmlns="http://www.w3.org/2000/svg" viewBox="0 0 487.42 491.44"><defs><style>.cls-1{fill:#51c85d;}</style></defs><title>call</title><path class="cls-1" d="M500.4,241.8c-.6,63.4-16.9,113-50.8,156.1-36.4,46.3-83.8,75.7-141.8,87.6-44.8,9.1-88.4,5.1-131.2-10.4a202.43,202.43,0,0,1-27.7-12.5,9,9,0,0,0-8-.7q-60.75,19.65-121.7,39c-1.8.6-4.2,2.3-5.6,1-1.6-1.6.4-4,1-5.9,8.1-24.1,16.2-48.3,24.4-72.4,5-14.7,9.8-29.3,15-43.9,1.4-3.8.9-6.7-1.2-10.2a231.74,231.74,0,0,1-23.3-56.1A238.93,238.93,0,0,1,80.5,93q50.25-57,123.9-75.2a234.33,234.33,0,0,1,94.7-3.7c41.6,6.8,79.1,23.3,111.8,49.9a240.71,240.71,0,0,1,74.4,103.4C493.9,189.7,500.7,226.2,500.4,241.8ZM74.6,441.5c24.8-8,48.5-15.6,72-23.3a8.77,8.77,0,0,1,8.3,1,170.2,170.2,0,0,0,28.7,15c32.5,13.8,66.3,18.8,101.2,14.3,42.8-5.5,80.4-22.7,112-52.6,39.8-37.7,61.1-83.9,63-138.5,1.8-53.5-15.4-100.5-51.3-140.4-34.1-37.9-76.9-59.5-127.4-64.9-43.9-4.7-85,4.8-123,27.6a196.5,196.5,0,0,0-74.7,80c-19.1,37.1-25.6,76.5-20.1,117.8a191.76,191.76,0,0,0,33.3,85.7c2,2.9,2.6,5.3,1.4,8.7-3.7,10.2-7,20.5-10.5,30.7C83.3,415.2,79.2,427.8,74.6,441.5Z" transform="translate(-12.99 -10.94)"/><path class="cls-1" d="M141,194.7c.5-23.8,8.9-41.5,24.8-55.6a22.08,22.08,0,0,1,18.5-5.6,45.32,45.32,0,0,0,9,.5c5.6-.3,9.4,2.4,11.3,7.3,6.7,17.4,13.2,34.8,19.7,52.3,2.2,6-1.6,10.7-4.8,15-3.7,5.1-8.2,9.6-12.6,14.1s-5.1,7.2-2,12.8c18.1,32.9,43.5,58.2,78,73.8,1.2.5,2.4,1.2,3.6,1.8,4.6,2.1,8.7,1.6,12.2-2.4,6.4-7.5,13.4-14.4,19.3-22.3,3.9-5.2,6.6-6.1,12.5-3.5,17.6,7.6,34.1,17.2,50.9,26.5,3.1,1.7,4.2,4.3,4.1,7.9-.9,29.5-17.8,44.9-47.5,51.7-14.4,3.3-27.7-.3-40.9-5.1-27.7-10-54.4-21.8-76.8-41.6a281.56,281.56,0,0,1-46.8-53.1c-10.2-15.2-20.8-30.1-26.7-47.8C143.4,212,140.9,202.4,141,194.7Z" transform="translate(-12.99 -10.94)"/></svg>