<svg id="svg2" xmlns="http://www.w3.org/2000/svg" viewBox="0 0 31.88 23.85"><defs><style>.cls-1{fill:#51c85d;}</style></defs><title>charge</title><g id="layer1"><path id="path5635-63-2-6-7-0" class="cls-1" d="M8.77,4.15a5.2,5.2,0,0,0-1.91.35,5.27,5.27,0,0,0-2,1.41.5.5,0,0,0-.2.58A.5.5,0,0,0,5,6.83,4.28,4.28,0,0,1,6.88,8.21,10.54,10.54,0,0,0,4,11.65H3.56a3.5,3.5,0,0,0-3.5,3.5v2a3.5,3.5,0,0,0,3.5,3.5H4.74a11.55,11.55,0,0,0,3.64,3.28V27.5a.5.5,0,0,0,.5.5h4a.5.5,0,0,0,.5-.5V25.72a16.1,16.1,0,0,0,7-.37V27.5a.5.5,0,0,0,.5.5h4a.5.5,0,0,0,.5-.5V22.8a9.08,9.08,0,0,0,3.2-10,4,4,0,0,0,1.91-3.21A5.25,5.25,0,0,0,31.94,5.7a.5.5,0,0,0-.47-.52H31.4a.5.5,0,0,0-.46.49,6,6,0,0,1-.56,2.49,1.54,1.54,0,0,0-1.06-.92,1.28,1.28,0,0,0-.93.22,2.13,2.13,0,0,0-.68.85l0,0A1.57,1.57,0,0,0,28,10a1.59,1.59,0,0,0,1.48.3,3.78,3.78,0,0,1-1.28,1.49,9.54,9.54,0,0,0-1-1.67,13.79,13.79,0,0,0-10.6-5,16.16,16.16,0,0,0-4.25.43A5.23,5.23,0,0,0,8.77,4.15Zm0,1a4.23,4.23,0,0,1,.53,0,4.28,4.28,0,0,1,3.29,2.42.5.5,0,0,0,.65.26.5.5,0,0,0,.27-.66l0,0a5.32,5.32,0,0,0-.42-.71c5.16-1,10.61.72,13.32,4.3S28.49,18.89,24.82,22a.5.5,0,0,0-.44.51V27h-3V24.72a.5.5,0,0,0-.47-.53h0a.5.5,0,0,0-.18,0,15.1,15.1,0,0,1-7.65.44.5.5,0,0,0-.43.12h0a.5.5,0,0,0-.25.44V27h-3V23.68a.5.5,0,0,0-.27-.45L9,23.15A10.59,10.59,0,0,1,5.51,20,.5.5,0,0,0,5,19.65H3.56a2.48,2.48,0,0,1-2.5-2.5v-2a2.48,2.48,0,0,1,2.5-2.5h.76a.5.5,0,0,0,.49-.37l0-.05A9.46,9.46,0,0,1,7.4,9.07a4.35,4.35,0,0,1,.26.71.5.5,0,0,0,.6.37.5.5,0,0,0,.37-.6v0A5.32,5.32,0,0,0,6,6.17,4.23,4.23,0,0,1,8.75,5.15ZM29.14,8.22h0a.82.82,0,0,1,.47.57c0,.09,0,.24,0,.34s-.2.24-.28.27a.6.6,0,0,1-.62-.09c-.11-.11-.17-.27-.06-.6A1.24,1.24,0,0,1,29,8.28.22.22,0,0,1,29.14,8.22ZM9.06,12.15a1,1,0,1,0,1,1A1,1,0,0,0,9.06,12.15Zm5.31.92,1.59,3H14.51v1h2v1h-2v1h2v2h1v-2h2v-1h-2v-1h2v-1H18.07l1.59-3H18.52L17,15.93,15.5,13.07Z" transform="translate(-0.06 -4.15)"/></g></svg>