<?xml version="1.0" encoding="utf-8"?>
<!-- Generator: Adobe Illustrator 21.1.0, SVG Export Plug-In . SVG Version: 6.00 Build 0)  -->
<svg version="1.1" id="Ebene_1" xmlns="http://www.w3.org/2000/svg" xmlns:xlink="http://www.w3.org/1999/xlink" x="0px" y="0px"
	 viewBox="0 0 256 256" style="enable-background:new 0 0 256 256;" xml:space="preserve">
<g>
	<path d="M197.9,149h-7.8c1.2-6.2,1.9-11.6,2.4-15.7c0.6-4.9-3.8-9.1-9.4-9.1H43.4c-5.5,0-9.9,4.2-9.4,9.1
		C37.1,160.5,51.3,240,113.3,240c33.9,0,53.4-23.7,64.8-49.6h10.5c0,0,11.8,0,14.1-6.2l9.4-18.6C212,156.9,207.1,149,197.9,149z
		 M145.1,221c-9.3,7.2-19.7,10.7-31.9,10.7s-22.6-3.5-31.9-10.7c-8.1-6.4-15.3-15.6-21.3-27.4c-11-22.1-15.3-47.8-16.7-61h139.6l0,0
		c-1.5,13.3-5.6,38.9-16.7,61.1C160.4,205.4,153.2,214.6,145.1,221z M194,180.9c0,0.1-0.1,0.2-0.1,0.2c-0.9,0.5-3.5,1-5.4,1h-4.1
		l7.8-24.8h5.8c2.9,0,4.2,3.6,4.6,6.7L194,180.9z"/>
	<path d="M99.2,105.6c0,0.2,0,0.5,0.1,0.7c0.1,0.5,0.1,1,0.2,1.6c0.2,0.9,0.5,1.8,0.7,2.6c0.6,1.6,1.2,2.8,1.6,3.6
		c0.2,0.4,0.5,0.7,0.6,0.9c0.1,0.2,0.2,0.3,0.2,0.3c0.2,0.3,0.7,0.6,1.2,0.5c0.6-0.1,1.1-0.6,0.9-1.2v-0.1c0,0-0.1-0.5-0.2-1.3
		c-0.1-0.8-0.4-2.1-0.6-3.5c-0.1-0.7-0.2-1.4-0.2-2.3c0-0.4,0-0.8,0-1.1c0-0.2,0-0.4,0-0.7v-0.2v-0.1V105c0.1-0.6,0.4-1.1,0.8-1.8
		c0.5-0.6,1.2-1.2,2-2.3c0.4-0.5,0.8-1,1.2-1.8c0.1-0.3,0.2-0.6,0.4-1c0.1-0.3,0.2-0.7,0.2-1c0-0.2,0.1-0.4,0.1-0.5v-0.4v-0.4v-0.1
		l0,0l0,0v-0.1v-0.2c0-0.5-0.1-1-0.2-1.6c-0.4-2.1-0.8-3.8-1.3-5.3c-0.5-1.6-1.1-2.7-1.4-3.6c-0.4-0.8-0.6-1.3-0.6-1.3l0,0
		c-0.2-0.4-0.7-0.6-1.2-0.6c-0.7,0.1-1.1,0.6-1.1,1.1c0,0,0.1,0.5,0.2,1.3c0.1,0.8,0.2,2.2,0.5,3.6s0.4,3.2,0.5,5c0,0.4,0,0.9,0,1.3
		c0,0.1-0.1,1-0.1,1.1c-0.1,0.2-0.2,0.5-0.4,0.8c-0.1,0.3-0.4,0.6-0.6,0.9c-0.6,0.6-1.4,1.4-2.2,2.5c-0.8,1.1-1.3,2.6-1.3,3.8v0.5
		c0,0.1,0,0.1,0,0.3L99.2,105.6z"/>
	<path d="M108.6,105.4v0.2c0,0.2,0,0.5,0.1,0.7c0.1,0.5,0.1,1,0.2,1.6c0.2,0.9,0.5,1.8,0.7,2.6c0.6,1.6,1.2,2.8,1.6,3.6
		c0.2,0.4,0.5,0.7,0.6,0.9c0.1,0.2,0.2,0.3,0.2,0.3c0.2,0.3,0.7,0.6,1.2,0.5c0.6-0.1,1.1-0.6,0.9-1.2v-0.1c0,0-0.1-0.5-0.2-1.3
		c-0.1-0.8-0.4-2.1-0.6-3.5c-0.1-0.7-0.2-1.4-0.2-2.3c0-0.4,0-0.8,0-1.1c0-0.2,0-0.4,0-0.7v-0.2v-0.1V105c0.1-0.6,0.4-1.1,0.8-1.8
		c0.5-0.6,1.2-1.2,2-2.3c0.4-0.5,0.8-1,1.2-1.8c0.1-0.3,0.2-0.6,0.4-1c0.1-0.3,0.2-0.7,0.2-1c0-0.2,0.1-0.4,0.1-0.5v-0.4v-0.4v-0.1
		l0,0l0,0v-0.1v-0.2c0-0.5-0.1-1-0.2-1.6c-0.4-2.1-0.8-3.8-1.3-5.3c-0.5-1.6-1.1-2.7-1.4-3.6c-0.4-0.8-0.6-1.3-0.6-1.3l0,0
		c-0.2-0.4-0.7-0.6-1.2-0.6c-0.7,0.1-1.1,0.6-1.1,1.1c0,0,0.1,0.5,0.2,1.3c0.1,0.8,0.2,2.2,0.5,3.6c0.2,1.4,0.4,3.2,0.5,5
		c0,0.4,0,0.9,0,1.3c0,0.1-0.1,1-0.1,1.1c-0.1,0.2-0.2,0.5-0.4,0.8c-0.1,0.3-0.4,0.6-0.6,0.9c-0.6,0.6-1.4,1.4-2.2,2.5
		c-0.8,1.1-1.3,2.6-1.3,3.8v0.5C108.6,105.3,108.6,105.3,108.6,105.4z"/>
	<path d="M118,105.4v0.2c0,0.2,0,0.5,0.1,0.7c0.1,0.5,0.1,1,0.2,1.6c0.2,0.9,0.5,1.8,0.7,2.6c0.6,1.6,1.2,2.8,1.6,3.6
		c0.2,0.4,0.5,0.7,0.6,0.9c0.1,0.2,0.2,0.3,0.2,0.3c0.2,0.3,0.7,0.6,1.2,0.5c0.6-0.1,1.1-0.6,0.9-1.2v-0.1c0,0-0.1-0.5-0.2-1.3
		c-0.1-0.8-0.4-2.1-0.6-3.5c-0.1-0.7-0.2-1.4-0.2-2.3c0-0.4,0-0.8,0-1.1c0-0.2,0-0.4,0-0.7v-0.2v-0.1V105c0.1-0.6,0.4-1.1,0.8-1.8
		c0.5-0.6,1.2-1.2,2-2.3c0.4-0.5,0.8-1,1.2-1.8c0.1-0.3,0.2-0.6,0.4-1c0.1-0.3,0.2-0.7,0.2-1c0-0.2,0.1-0.4,0.1-0.5v-0.4v-0.4v-0.1
		l0,0l0,0v-0.1v-0.2c0-0.5-0.1-1-0.2-1.6c-0.4-2.1-0.8-3.8-1.3-5.3c-0.5-1.6-1.1-2.7-1.4-3.6c-0.4-0.8-0.6-1.3-0.6-1.3l0,0
		c-0.2-0.4-0.7-0.6-1.2-0.6c-0.7,0.1-1.1,0.6-1.1,1.1c0,0,0.1,0.5,0.2,1.3c0.1,0.8,0.2,2.2,0.5,3.6s0.4,3.2,0.5,5c0,0.4,0,0.9,0,1.3
		c0,0.1-0.1,1-0.1,1.1c-0.1,0.2-0.2,0.5-0.4,0.8s-0.4,0.6-0.6,0.9c-0.6,0.6-1.4,1.4-2.2,2.5c-0.8,1.1-1.3,2.6-1.3,3.8v0.5
		C118,105.3,118,105.3,118,105.4z"/>
	<path d="M158,173.9H68.5c-3.2,0-5.5,2.8-4.5,5.5c0.9,2.3,1.9,4.5,2.8,6.8c11.4,25.1,26.6,37.3,46.4,37.3s35-12.2,46.4-37.3
		c1.1-2.3,2-4.5,2.8-6.8C163.6,176.6,161.3,173.9,158,173.9z"/>
</g>
</svg>
