<svg id="レイヤー_1" data-name="レイヤー 1" xmlns="http://www.w3.org/2000/svg" xmlns:xlink="http://www.w3.org/1999/xlink" viewBox="0 0 140.73 140.73"><defs><style>.cls-1{fill:none;}.cls-2{clip-path:url(#clip-path);}.cls-3{fill:#4662b2;}</style><clipPath id="clip-path" transform="translate(-602.53 -670.06)"><path class="cls-1" d="M693,743.94H680.67v44.5H662.27v-44.5h-9.2V728.6h9.2v-9.2c0-12.51,5.19-20,19.95-20H694.5v15.34h-7.67c-5.75,0-6.13,2.14-6.13,6.14l0,7.67h13.92Z"/></clipPath></defs><title>facebook</title><g class="cls-2"><path class="cls-3" d="M641,677.72l-30.83,30.83a69.84,69.84,0,0,0-3.9,9.23l44-44A69.56,69.56,0,0,0,641,677.72Z" transform="translate(-602.53 -670.06)"/><path class="cls-3" d="M657.35,671.81l-53.07,53.07q-.72,3.19-1.15,6.48l60.69-60.69Q660.54,671.09,657.35,671.81Z" transform="translate(-602.53 -670.06)"/><path class="cls-3" d="M672.92,670.06c-1.17,0-2.32,0-3.47.09L602.61,737c-.06,1.15-.09,2.31-.09,3.47,0,.64,0,1.27,0,1.9l72.24-72.24C674.18,670.09,673.55,670.06,672.92,670.06Z" transform="translate(-602.53 -670.06)"/><path class="cls-3" d="M679.64,670.39l-76.79,76.79c.15,1.59.36,3.16.61,4.72L684.36,671C682.8,670.75,681.23,670.54,679.64,670.39Z" transform="translate(-602.53 -670.06)"/><path class="cls-3" d="M688.62,671.84l-84.32,84.32c.33,1.43.69,2.84,1.1,4.23l87.44-87.44C691.46,672.53,690,672.17,688.62,671.84Z" transform="translate(-602.53 -670.06)"/><path class="cls-3" d="M696.71,674.19l-90,90.05q.7,1.94,1.5,3.83l92.38-92.38Q698.65,674.89,696.71,674.19Z" transform="translate(-602.53 -670.06)"/><path class="cls-3" d="M704,677.31l-94.26,94.26c.58,1.18,1.2,2.34,1.85,3.48l95.89-95.89C706.37,678.51,705.21,677.89,704,677.31Z" transform="translate(-602.53 -670.06)"/><path class="cls-3" d="M710.7,681.07l-97.16,97.16q1,1.62,2.15,3.18l98.19-98.19Q712.32,682.11,710.7,681.07Z" transform="translate(-602.53 -670.06)"/><path class="cls-3" d="M716.79,685.42l-98.9,98.9q1.18,1.48,2.43,2.9l99.36-99.36C718.74,687,717.77,686.21,716.79,685.42Z" transform="translate(-602.53 -670.06)"/><path class="cls-3" d="M722.32,690.32l-99.53,99.53c.88.9,1.78,1.77,2.71,2.62L724.94,693C724.09,692.11,723.21,691.21,722.32,690.32Z" transform="translate(-602.53 -670.06)"/><path class="cls-3" d="M727.31,695.77l-99.07,99.07c1,.8,2,1.58,3,2.33l98.4-98.4C728.88,697.75,728.11,696.75,727.31,695.77Z" transform="translate(-602.53 -670.06)"/><path class="cls-3" d="M731.73,701.79l-97.48,97.48q1.62,1.06,3.29,2l96.22-96.22C733.11,704,732.44,702.86,731.73,701.79Z" transform="translate(-602.53 -670.06)"/><path class="cls-3" d="M735.57,708.38,640.84,803.1q1.78.92,3.61,1.72L737.29,712Q736.48,710.15,735.57,708.38Z" transform="translate(-602.53 -670.06)"/><path class="cls-3" d="M738.78,715.6l-90.72,90.72c1.3.49,2.62,1,4,1.37l88.13-88.13C739.74,718.22,739.27,716.91,738.78,715.6Z" transform="translate(-602.53 -670.06)"/><path class="cls-3" d="M741.25,723.56,656,808.79c1.45.36,2.92.66,4.4.93L742.18,728C741.92,726.48,741.61,725,741.25,723.56Z" transform="translate(-602.53 -670.06)"/><path class="cls-3" d="M742.84,732.41l-78,78c1.63.19,3.28.32,4.94.39l73.41-73.41C743.16,735.69,743,734,742.84,732.41Z" transform="translate(-602.53 -670.06)"/><path class="cls-3" d="M743.26,742.43l-68.36,68.36c1.92-.05,3.83-.17,5.7-.37l62.29-62.28C743.09,746.26,743.21,744.35,743.26,742.43Z" transform="translate(-602.53 -670.06)"/><path class="cls-3" d="M742,754.16,686.62,809.5a70.49,70.49,0,0,0,7.12-1.79l46.43-46.43A69.71,69.71,0,0,0,742,754.16Z" transform="translate(-602.53 -670.06)"/><path class="cls-3" d="M729.34,782.55a70.11,70.11,0,0,0,7.67-13l-35,35a70.37,70.37,0,0,0,13-7.67Z" transform="translate(-602.53 -670.06)"/></g><path class="cls-3" d="M715,805H702.77a1.5,1.5,0,0,1,0-3H715a1.5,1.5,0,0,1,0,3Zm-24.41,0H678.36a1.5,1.5,0,0,1,0-3h12.21a1.5,1.5,0,0,1,0,3Zm-24.41,0H653.95a1.5,1.5,0,0,1,0-3h12.21a1.5,1.5,0,1,1,0,3Zm-24.41,0H629.54a1.5,1.5,0,0,1,0-3h12.21a1.5,1.5,0,1,1,0,3Zm85.1-1.79a1.5,1.5,0,0,1-.79-2.77,10.45,10.45,0,0,0,5-8.93,1.51,1.51,0,0,1,1.49-1.53,1.47,1.47,0,0,1,1.49,1.47v.05A13.42,13.42,0,0,1,727.62,803,1.46,1.46,0,0,1,726.84,803.21Zm-107.51-3.88a1.52,1.52,0,0,1-1.29-.71,13.49,13.49,0,0,1-2-7.12V786a1.5,1.5,0,1,1,3,0v5.54a10.48,10.48,0,0,0,1.59,5.53,1.5,1.5,0,0,1-.48,2.07A1.47,1.47,0,0,1,619.33,799.33ZM732.5,780.74a1.5,1.5,0,0,1-1.5-1.5V767a1.5,1.5,0,1,1,3,0v12.21A1.5,1.5,0,0,1,732.5,780.74Zm-115-5.49a1.5,1.5,0,0,1-1.5-1.5v-12.2a1.5,1.5,0,0,1,3,0v12.2A1.5,1.5,0,0,1,617.5,775.26Zm115-18.92a1.5,1.5,0,0,1-1.5-1.5V742.63a1.5,1.5,0,0,1,3,0v12.21A1.5,1.5,0,0,1,732.5,756.33Zm-115-5.49a1.5,1.5,0,0,1-1.5-1.5V737.14a1.5,1.5,0,0,1,3,0v12.21A1.5,1.5,0,0,1,617.5,750.85Zm115-18.92a1.5,1.5,0,0,1-1.5-1.5V718.22a1.5,1.5,0,0,1,3,0v12.21A1.5,1.5,0,0,1,732.5,731.92Zm-115-5.49a1.5,1.5,0,0,1-1.5-1.5v-12.2a1.5,1.5,0,0,1,3,0v12.2A1.5,1.5,0,0,1,617.5,726.44Zm115-18.92A1.5,1.5,0,0,1,731,706V700.5a10.45,10.45,0,0,0-1.57-5.55,1.5,1.5,0,0,1,2.54-1.59,13.46,13.46,0,0,1,2,7.14V706A1.5,1.5,0,0,1,732.5,707.51Zm-115-5.5a1.5,1.5,0,0,1-1.51-1.49v0A13.44,13.44,0,0,1,622.38,689a1.5,1.5,0,0,1,1.6,2.55,10.45,10.45,0,0,0-5,8.92A1.52,1.52,0,0,1,617.51,702Zm103-12h-12.2a1.5,1.5,0,0,1,0-3h12.2a1.5,1.5,0,0,1,0,3Zm-24.41,0h-12.2a1.5,1.5,0,1,1,0-3h12.2a1.5,1.5,0,0,1,0,3Zm-24.41,0H659.46a1.5,1.5,0,0,1,0-3h12.21a1.5,1.5,0,0,1,0,3Zm-24.41,0h-12.2a1.5,1.5,0,0,1,0-3h12.2a1.5,1.5,0,0,1,0,3Z" transform="translate(-602.53 -670.06)"/></svg>