<svg id="レイヤー_1" data-name="レイヤー 1" xmlns="http://www.w3.org/2000/svg" viewBox="0 0 169.65 426.66"><defs><style>.cls-1,.cls-3{fill:none;stroke:#000;stroke-miterlimit:10;}.cls-2{fill:#fff;}.cls-3{stroke-width:0.13px;}</style></defs><title>gejigeji</title><path class="cls-1" d="M567,574.6" transform="translate(-559.6 -304.66)"/><line class="cls-1" x1="65.3" y1="22.54" x2="65.3" y2="22.54"/><line class="cls-1" x1="79.3" y1="21.24" x2="115.4" y2="21.24"/><line class="cls-1" x1="65.3" y1="45.94" x2="65.3" y2="45.94"/><path class="cls-1" d="M557.6,291.2" transform="translate(-559.6 -304.66)"/><path class="cls-1" d="M550.1,296.1" transform="translate(-559.6 -304.66)"/><path class="cls-2" d="M569.2,563.1c.1-.1.6-.2.2-.2-.1,0-.3.1-.4.1s-.4.1-.6.2a1.17,1.17,0,0,0-.9,1c.6-.1,1.3-.1,1.9-.2v-.9c0-.9-1.9-.5-1.9.2a3.75,3.75,0,0,0,.1,1.1c.3.8,2.2.2,1.9-.5a2.48,2.48,0,0,1-.1-.8c-.6.1-1.3.1-1.9.2a2.72,2.72,0,0,1,0,.9c-.1.9,1.9.5,1.9-.2v-.1c-.3.2-.5.3-.8.5a4.19,4.19,0,0,0,2.1-.8.45.45,0,0,0-.2-.8,1.3,1.3,0,0,0-1.3.3Z" transform="translate(-559.6 -304.66)"/><path class="cls-1" d="M566.1,503.5" transform="translate(-559.6 -304.66)"/><path class="cls-1" d="M566.6,503.5" transform="translate(-559.6 -304.66)"/><path class="cls-1" d="M566.6,498.4" transform="translate(-559.6 -304.66)"/><path class="cls-1" d="M566.6,509.3" transform="translate(-559.6 -304.66)"/><circle cx="79.4" cy="42.04" r="1.7"/><circle cx="115.4" cy="42.04" r="1.7"/><line class="cls-1" x1="61.4" y1="31.54" x2="79.9" y2="21.44"/><line class="cls-1" x1="133.4" y1="31.54" x2="115.4" y2="21.24"/><line class="cls-1" x1="61.4" y1="31.54" x2="61.4" y2="93.94"/><line class="cls-1" x1="133.4" y1="31.54" x2="133.4" y2="93.94"/><line class="cls-1" x1="97.4" y1="198.84" x2="133.4" y2="93.94"/><line class="cls-1" x1="61.4" y1="301.74" x2="25.4" y2="197.84"/><line class="cls-1" x1="133.4" y1="301.74" x2="97.4" y2="198.84"/><path class="cls-1" d="M693,606.4" transform="translate(-559.6 -304.66)"/><path class="cls-1" d="M621,606.4" transform="translate(-559.6 -304.66)"/><line class="cls-1" x1="25.4" y1="114.74" x2="54.2" y2="114.74"/><line class="cls-1" x1="126.3" y1="114.74" x2="151.4" y2="114.74"/><line class="cls-1" x1="119.2" y1="135.54" x2="144.4" y2="135.54"/><line class="cls-1" x1="111.7" y1="156.74" x2="136.8" y2="156.74"/><line class="cls-1" x1="105" y1="177.34" x2="130.2" y2="177.34"/><line class="cls-1" x1="21.6" y1="135.54" x2="46.8" y2="135.54"/><line class="cls-1" x1="14.6" y1="156.74" x2="39.8" y2="156.74"/><line class="cls-1" x1="7.3" y1="177.34" x2="32.5" y2="177.34"/><line class="cls-1" y1="197.74" x2="25.2" y2="197.74"/><line class="cls-1" x1="97.9" y1="197.74" x2="123.1" y2="197.74"/><line class="cls-1" x1="7.3" y1="218.64" x2="32.5" y2="218.64"/><line class="cls-1" x1="104" y1="218.64" x2="129.1" y2="218.64"/><line class="cls-1" x1="14.2" y1="239.34" x2="39.4" y2="239.34"/><line class="cls-1" x1="111.4" y1="239.44" x2="136.6" y2="239.44"/><line class="cls-1" x1="21.4" y1="260.14" x2="46.6" y2="260.14"/><line class="cls-1" x1="118.6" y1="260.24" x2="143.8" y2="260.24"/><line class="cls-1" x1="28.7" y1="280.94" x2="53.9" y2="280.94"/><line class="cls-1" x1="126.3" y1="280.94" x2="151.4" y2="280.94"/><path class="cls-1" d="M586.4,669.6" transform="translate(-559.6 -304.66)"/><path class="cls-1" d="M621,606.4" transform="translate(-559.6 -304.66)"/><path class="cls-1" d="M586.4,669.6" transform="translate(-559.6 -304.66)"/><path class="cls-1" d="M603.7,700.4" transform="translate(-559.6 -304.66)"/><path class="cls-1" d="M729,668.8" transform="translate(-559.6 -304.66)"/><path class="cls-1" d="M693,606.4" transform="translate(-559.6 -304.66)"/><path class="cls-1" d="M603,679.2" transform="translate(-559.6 -304.66)"/><path class="cls-1" d="M639,606.4" transform="translate(-559.6 -304.66)"/><path class="cls-1" d="M711,679.2" transform="translate(-559.6 -304.66)"/><path class="cls-1" d="M675,606.4" transform="translate(-559.6 -304.66)"/><path class="cls-1" d="M639,637.6" transform="translate(-559.6 -304.66)"/><path class="cls-1" d="M621,606.4" transform="translate(-559.6 -304.66)"/><path class="cls-1" d="M675,637.6" transform="translate(-559.6 -304.66)"/><path class="cls-1" d="M693,606.4" transform="translate(-559.6 -304.66)"/><path class="cls-1" d="M640.6,617.8" transform="translate(-559.6 -304.66)"/><path class="cls-1" d="M675,616.8" transform="translate(-559.6 -304.66)"/><path class="cls-1" d="M693,606.4" transform="translate(-559.6 -304.66)"/><line class="cls-1" x1="61.4" y1="301.74" x2="61.4" y2="343.34"/><line class="cls-1" x1="133.4" y1="301.74" x2="133.3" y2="343.34"/><line class="cls-1" x1="61.4" y1="343.34" x2="78.7" y2="353.34"/><line class="cls-1" x1="133.3" y1="343.34" x2="115.4" y2="353.64"/><line class="cls-1" x1="78.7" y1="353.34" x2="115.4" y2="353.64"/><line class="cls-1" x1="36.3" y1="301.74" x2="61.4" y2="301.74"/><line class="cls-1" x1="36.3" y1="322.64" x2="61.4" y2="322.64"/><line class="cls-1" x1="133.3" y1="301.74" x2="158.5" y2="301.74"/><line class="cls-1" x1="133.4" y1="322.64" x2="158.6" y2="322.64"/><path class="cls-1" d="M621.5,648" transform="translate(-559.6 -304.66)"/><path class="cls-1" d="M596.3,648" transform="translate(-559.6 -304.66)"/><path class="cls-1" d="M718.5,648" transform="translate(-559.6 -304.66)"/><path class="cls-1" d="M693.4,648" transform="translate(-559.6 -304.66)"/><line class="cls-1" x1="78.7" y1="353.34" x2="61.4" y2="426.44"/><line class="cls-1" x1="115.4" y1="353.64" x2="133.3" y2="426.54"/><path class="cls-1" d="M603.7,658.8" transform="translate(-559.6 -304.66)"/><path class="cls-1" d="M621,648" transform="translate(-559.6 -304.66)"/><path class="cls-1" d="M612.1,653.2" transform="translate(-559.6 -304.66)"/><path class="cls-1" d="M621,648" transform="translate(-559.6 -304.66)"/><path class="cls-1" d="M701.7,653" transform="translate(-559.6 -304.66)"/><path class="cls-1" d="M692.9,648" transform="translate(-559.6 -304.66)"/><path class="cls-1" d="M603.7,637.6" transform="translate(-559.6 -304.66)"/><path class="cls-1" d="M621,637.6" transform="translate(-559.6 -304.66)"/><path class="cls-1" d="M711,637.6" transform="translate(-559.6 -304.66)"/><path class="cls-1" d="M693,637.6" transform="translate(-559.6 -304.66)"/><path class="cls-1" d="M621,648" transform="translate(-559.6 -304.66)"/><path class="cls-1" d="M603,658.4" transform="translate(-559.6 -304.66)"/><path class="cls-1" d="M621,648" transform="translate(-559.6 -304.66)"/><path class="cls-1" d="M621,668.8" transform="translate(-559.6 -304.66)"/><path class="cls-1" d="M711,658.4" transform="translate(-559.6 -304.66)"/><path class="cls-1" d="M693.4,648" transform="translate(-559.6 -304.66)"/><line class="cls-1" x1="43.4" y1="353.74" x2="61.4" y2="343.34"/><line class="cls-1" x1="133.3" y1="343.34" x2="150.9" y2="354.04"/><path class="cls-1" d="M567,428.8" transform="translate(-559.6 -304.66)"/><line class="cls-1" x1="61.4" y1="82.14" x2="61.4" y2="82.14"/><line class="cls-1" x1="61.4" y1="93.94" x2="133.4" y2="93.94"/><line class="cls-3" x1="43.4" y1="0.44" x2="79.3" y2="21.24"/><line class="cls-1" x1="43.4" y1="0.44" x2="79.3" y2="21.24"/><line class="cls-1" x1="25.4" y1="10.44" x2="43.4" y2="0.44"/><line class="cls-1" x1="151.4" y1="0.44" x2="115.4" y2="21.24"/><line class="cls-1" x1="169.4" y1="10.84" x2="151.4" y2="0.44"/><line class="cls-1" x1="61.4" y1="93.94" x2="25.4" y2="197.84"/></svg>