<svg id="レイヤー_1" data-name="レイヤー 1" xmlns="http://www.w3.org/2000/svg" viewBox="0 0 324.4 364.77"><defs><style>.cls-1,.cls-2{fill:none;stroke:#000;stroke-miterlimit:10;}.cls-2{stroke-width:0.13px;}.cls-3{fill:#fff;}</style></defs><title>goki</title><line class="cls-1" x1="72.25" y1="146.13" x2="18.25" y2="135.73"/><line class="cls-1" x1="0.35" y1="125.43" x2="18.35" y2="135.83"/><line class="cls-1" x1="252.25" y1="146.13" x2="306.25" y2="135.73"/><line class="cls-1" x1="324.15" y1="125.33" x2="306.15" y2="135.73"/><line class="cls-1" x1="18.55" y1="281.33" x2="71.85" y2="271.03"/><path class="cls-1" d="M757,757.4" transform="translate(-738.75 -434.67)"/><line class="cls-1" x1="252.25" y1="270.83" x2="306.25" y2="281.23"/><line class="cls-1" x1="323.85" y1="291.53" x2="306.35" y2="281.23"/><path class="cls-1" d="M811,725.6" transform="translate(-738.75 -434.67)"/><path class="cls-1" d="M1063.1,756.4" transform="translate(-738.75 -434.67)"/><path class="cls-1" d="M991,725.3" transform="translate(-738.75 -434.67)"/><line class="cls-1" x1="130.15" y1="43.53" x2="130.15" y2="43.53"/><line class="cls-1" x1="144.15" y1="42.23" x2="72.05" y2="104.93"/><line class="cls-1" x1="180.25" y1="42.23" x2="252.45" y2="104.93"/><line class="cls-1" x1="144.15" y1="42.23" x2="180.25" y2="42.23"/><line class="cls-2" x1="270.35" y1="54.03" x2="270.35" y2="54.03"/><line class="cls-1" x1="130.15" y1="66.93" x2="130.15" y2="66.93"/><line class="cls-1" x1="144.15" y1="42.23" x2="71.85" y2="0.43"/><path class="cls-1" d="M801.6,442.2" transform="translate(-738.75 -434.67)"/><path class="cls-1" d="M783.6,452.6" transform="translate(-738.75 -434.67)"/><line class="cls-1" x1="180.25" y1="42.23" x2="252.25" y2="0.63"/><line class="cls-1" x1="288.25" y1="21.43" x2="251.85" y2="0.43"/><path class="cls-1" d="M776.1,457.5" transform="translate(-738.75 -434.67)"/><path class="cls-1" d="M794.1,447.1" transform="translate(-738.75 -434.67)"/><path class="cls-3" d="M813.2,714.1c.1-.1.6-.2.2-.2-.1,0-.3.1-.4.1s-.4.1-.6.2a1.17,1.17,0,0,0-.9,1c.6-.1,1.3-.1,1.9-.2v-.9c0-.9-1.9-.5-1.9.2a3.75,3.75,0,0,0,.1,1.1c.3.8,2.2.2,1.9-.5a2.48,2.48,0,0,1-.1-.8c-.6.1-1.3.1-1.9.2a2.72,2.72,0,0,1,0,.9c-.1.9,1.9.5,1.9-.2v-.1c-.3.2-.5.3-.8.5a4.19,4.19,0,0,0,2.1-.8.45.45,0,0,0-.2-.8,1.3,1.3,0,0,0-1.3.3Z" transform="translate(-738.75 -434.67)"/><path class="cls-1" d="M810.1,654.5" transform="translate(-738.75 -434.67)"/><path class="cls-1" d="M766,654.5" transform="translate(-738.75 -434.67)"/><path class="cls-1" d="M1032.9,654.5" transform="translate(-738.75 -434.67)"/><path class="cls-1" d="M991.4,654.5" transform="translate(-738.75 -434.67)"/><path class="cls-1" d="M810.6,654.5" transform="translate(-738.75 -434.67)"/><path class="cls-1" d="M766,654.5" transform="translate(-738.75 -434.67)"/><path class="cls-1" d="M810.6,649.4" transform="translate(-738.75 -434.67)"/><path class="cls-1" d="M766,654.5" transform="translate(-738.75 -434.67)"/><path class="cls-1" d="M810.6,660.3" transform="translate(-738.75 -434.67)"/><path class="cls-1" d="M1032.9,654.5" transform="translate(-738.75 -434.67)"/><path class="cls-1" d="M991,648" transform="translate(-738.75 -434.67)"/><path class="cls-1" d="M1032.9,654.5" transform="translate(-738.75 -434.67)"/><path class="cls-1" d="M991.4,661.1" transform="translate(-738.75 -434.67)"/><path class="cls-1" d="M1032.9,654.5" transform="translate(-738.75 -434.67)"/><path class="cls-1" d="M1063.1,654.5" transform="translate(-738.75 -434.67)"/><path class="cls-1" d="M766,654.5" transform="translate(-738.75 -434.67)"/><circle cx="144.25" cy="63.03" r="1.7"/><circle cx="180.25" cy="63.03" r="1.7"/><line class="cls-1" x1="36.25" y1="21.43" x2="72.25" y2="0.63"/><line class="cls-1" x1="18.25" y1="218.83" x2="72.25" y2="218.93"/><line class="cls-1" x1="306.25" y1="218.83" x2="252.25" y2="218.83"/><line class="cls-1" x1="18.05" y1="281.33" x2="0.25" y2="291.63"/><line class="cls-1" x1="72.25" y1="104.53" x2="72.25" y2="313.33"/><line class="cls-1" x1="252.25" y1="104.53" x2="252.25" y2="313.33"/><line class="cls-1" x1="72.25" y1="312.33" x2="141.95" y2="352.63"/><line class="cls-1" x1="162.15" y1="364.33" x2="141.95" y2="352.63"/><line class="cls-1" x1="252.25" y1="312.93" x2="162.15" y2="364.33"/><line class="cls-1" x1="76.05" y1="104.53" x2="252.25" y2="104.53"/><line class="cls-1" x1="76.05" y1="104.53" x2="72.25" y2="104.53"/><line class="cls-1" x1="162.15" y1="364.73" x2="162.25" y2="104.93"/><path class="cls-1" d="M811,579.8" transform="translate(-738.75 -434.67)"/><path class="cls-1" d="M991,579.8" transform="translate(-738.75 -434.67)"/></svg>