<svg id="Layer_1" data-name="Layer 1" xmlns="http://www.w3.org/2000/svg" viewBox="0 0 713.01 736.51"><defs><style>.cls-1{fill:#f33;}.cls-2{fill:#51c85d;}</style></defs><title>map</title><path class="cls-1" d="M325.32,578.85C399.24,578.85,508,301.56,508,214.39,508,113.67,426,31.75,325.32,31.75S142.67,113.67,142.67,214.39C142.67,297.33,255.91,578.85,325.32,578.85ZM179,214.39c0-80.66,65.62-146.28,146.29-146.28s146.27,65.62,146.27,146.28c0,41.89-23.42,120.28-59.68,199.75-38.45,84.25-72.67,128.35-86.57,128.35C318.55,542,286,510.7,241,413.93,203.95,334.09,179,253.9,179,214.39Z" transform="translate(-43.5 -31.75)"/><path class="cls-1" d="M437,217.42a111.7,111.7,0,1,0-111.69,111.7A111.83,111.83,0,0,0,437,217.42Zm-190.4,0a78.71,78.71,0,1,1,78.71,78.71A78.8,78.8,0,0,1,246.61,217.42Z" transform="translate(-43.5 -31.75)"/><path class="cls-2" d="M755.53,746.32l-140.72-392a16.36,16.36,0,0,0-9.78-9.86l-100.9-37-1.32,4.43c-4.5,15-9.64,30.65-15.28,46.46l-.36,1L502.1,470.8l-75.25,23.94-.83,1.5q-9,16.13-18,29.79l-.33.48c-7.78,11.84-17.56,22.21-25.12,31l-3.11,1.22V722.35L266.92,686.7,283.05,574,282,572.43a210.54,210.54,0,0,1-20.44-23.33l-6.24-8.23L236,685.37,86,727.47l66.8-186,81.8-32.72-2.55-4.37c-4-6.89-8-13.94-11.8-21.06l-1.84-3.42-50.79,20.32,25.69-71.55-.73-1.61c-4.85-10.73-9.54-21.56-13.93-32.23l-4.3-10.42L44.47,746.32a16.4,16.4,0,0,0,15.44,21.94,16.68,16.68,0,0,0,4.41-.6l186.32-52.31,137.72,42.85.28.21a15.14,15.14,0,0,0,8,2.81,16.49,16.49,0,0,0,6,.08,16.13,16.13,0,0,0,8.61-2.89l.3-.22,137.72-42.85,186.34,52.31a16.62,16.62,0,0,0,16.4-4.62A16.28,16.28,0,0,0,755.53,746.32Zm-339-24V532.49l90.06-28.68L531.09,686.7ZM518.7,347.71l67.82,24.87,45.1,125.66L535.4,472.32Zm45.23,337.66L540.11,507.56l105,28.27,68.8,191.65Z" transform="translate(-43.5 -31.75)"/></svg>