<svg id="レイヤー_1" data-name="レイヤー 1" xmlns="http://www.w3.org/2000/svg" viewBox="0 0 288.3 344.39"><defs><style>.cls-1,.cls-2{fill:none;stroke:#000;stroke-miterlimit:10;}.cls-2{stroke-width:0.13px;}.cls-3{fill:#fff;}</style></defs><title>semi</title><path class="cls-1" d="M550,468.8" transform="translate(-495.95 -343.47)"/><line class="cls-1" x1="0.25" y1="115.03" x2="18.25" y2="125.43"/><line class="cls-1" x1="234.05" y1="125.33" x2="270.05" y2="125.33"/><line class="cls-1" x1="287.85" y1="115.03" x2="269.85" y2="125.43"/><line class="cls-1" x1="18.05" y1="249.83" x2="53.65" y2="250.23"/><path class="cls-1" d="M496,645.4" transform="translate(-495.95 -343.47)"/><line class="cls-1" x1="234.05" y1="250.03" x2="270.05" y2="250.03"/><line class="cls-1" x1="288.05" y1="260.43" x2="269.75" y2="249.93"/><path class="cls-1" d="M550,613.6" transform="translate(-495.95 -343.47)"/><path class="cls-1" d="M730,613.3" transform="translate(-495.95 -343.47)"/><line class="cls-1" x1="111.95" y1="22.73" x2="111.95" y2="22.73"/><line class="cls-1" x1="125.95" y1="21.43" x2="53.85" y2="84.13"/><line class="cls-1" x1="162.05" y1="21.43" x2="234.25" y2="84.13"/><line class="cls-1" x1="125.95" y1="21.43" x2="162.05" y2="21.43"/><line class="cls-2" x1="252.15" y1="33.23" x2="252.15" y2="33.23"/><line class="cls-1" x1="111.95" y1="46.13" x2="111.95" y2="46.13"/><line class="cls-1" x1="125.95" y1="21.43" x2="89.95" y2="0.63"/><path class="cls-1" d="M522.6,340.6" transform="translate(-495.95 -343.47)"/><line class="cls-1" x1="162.05" y1="21.43" x2="197.95" y2="0.63"/><line class="cls-1" x1="216.05" y1="10.93" x2="197.85" y2="0.43"/><path class="cls-1" d="M515.1,345.5" transform="translate(-495.95 -343.47)"/><path class="cls-1" d="M533.1,335.1" transform="translate(-495.95 -343.47)"/><path class="cls-3" d="M552.2,602.1c.1-.1.6-.2.2-.2-.1,0-.3.1-.4.1s-.4.1-.6.2a1.17,1.17,0,0,0-.9,1c.6-.1,1.3-.1,1.9-.2v-.9c0-.9-1.9-.5-1.9.2a3.75,3.75,0,0,0,.1,1.1c.3.8,2.2.2,1.9-.5a2.48,2.48,0,0,1-.1-.8c-.6.1-1.3.1-1.9.2a2.72,2.72,0,0,1,0,.9c-.1.9,1.9.5,1.9-.2v-.1c-.3.2-.5.3-.8.5a4.19,4.19,0,0,0,2.1-.8.45.45,0,0,0-.2-.8,1.3,1.3,0,0,0-1.3.3Z" transform="translate(-495.95 -343.47)"/><path class="cls-1" d="M549.1,542.5" transform="translate(-495.95 -343.47)"/><path class="cls-1" d="M505,542.5" transform="translate(-495.95 -343.47)"/><path class="cls-1" d="M771.9,542.5" transform="translate(-495.95 -343.47)"/><path class="cls-1" d="M730.4,542.5" transform="translate(-495.95 -343.47)"/><path class="cls-1" d="M549.6,542.5" transform="translate(-495.95 -343.47)"/><path class="cls-1" d="M505,542.5" transform="translate(-495.95 -343.47)"/><path class="cls-1" d="M549.6,537.4" transform="translate(-495.95 -343.47)"/><path class="cls-1" d="M505,542.5" transform="translate(-495.95 -343.47)"/><path class="cls-1" d="M549.6,548.3" transform="translate(-495.95 -343.47)"/><path class="cls-1" d="M771.9,542.5" transform="translate(-495.95 -343.47)"/><path class="cls-1" d="M730,536" transform="translate(-495.95 -343.47)"/><path class="cls-1" d="M771.9,542.5" transform="translate(-495.95 -343.47)"/><path class="cls-1" d="M730.4,549.1" transform="translate(-495.95 -343.47)"/><path class="cls-1" d="M771.9,542.5" transform="translate(-495.95 -343.47)"/><path class="cls-1" d="M505,542.5" transform="translate(-495.95 -343.47)"/><circle cx="126.05" cy="42.23" r="1.7"/><circle cx="162.05" cy="42.23" r="1.7"/><line class="cls-1" x1="72.45" y1="11.23" x2="90.25" y2="0.93"/><line class="cls-1" x1="18.05" y1="198.03" x2="54.05" y2="198.13"/><line class="cls-1" x1="269.85" y1="198.03" x2="234.05" y2="198.03"/><line class="cls-1" x1="18.45" y1="249.83" x2="0.25" y2="260.33"/><line class="cls-1" x1="54.05" y1="83.73" x2="54.05" y2="292.53"/><line class="cls-1" x1="234.05" y1="83.73" x2="234.05" y2="292.53"/><path class="cls-1" d="M619.7,675.3" transform="translate(-495.95 -343.47)"/><path class="cls-1" d="M550,635" transform="translate(-495.95 -343.47)"/><path class="cls-1" d="M619.7,675.3" transform="translate(-495.95 -343.47)"/><path class="cls-1" d="M639.9,687" transform="translate(-495.95 -343.47)"/><path class="cls-1" d="M639.9,687" transform="translate(-495.95 -343.47)"/><path class="cls-1" d="M730,635.6" transform="translate(-495.95 -343.47)"/><path class="cls-1" d="M730,427.2" transform="translate(-495.95 -343.47)"/><path class="cls-1" d="M553.8,427.2" transform="translate(-495.95 -343.47)"/><path class="cls-1" d="M550,427.2" transform="translate(-495.95 -343.47)"/><path class="cls-1" d="M553.8,427.2" transform="translate(-495.95 -343.47)"/><path class="cls-1" d="M640,427.6" transform="translate(-495.95 -343.47)"/><path class="cls-1" d="M639.9,687.4" transform="translate(-495.95 -343.47)"/><path class="cls-1" d="M550,467.8" transform="translate(-495.95 -343.47)"/><path class="cls-1" d="M730,467.8" transform="translate(-495.95 -343.47)"/><path class="cls-1" d="M550,427.2" transform="translate(-495.95 -343.47)"/><path class="cls-1" d="M640,437.6" transform="translate(-495.95 -343.47)"/><path class="cls-1" d="M730,427.2" transform="translate(-495.95 -343.47)"/><path class="cls-1" d="M549.8,427.6" transform="translate(-495.95 -343.47)"/><path class="cls-1" d="M640,458.3" transform="translate(-495.95 -343.47)"/><path class="cls-1" d="M640,458.3" transform="translate(-495.95 -343.47)"/><path class="cls-1" d="M730,427.2" transform="translate(-495.95 -343.47)"/><line class="cls-1" x1="18.05" y1="125.33" x2="54.05" y2="125.33"/><line class="cls-1" x1="53.85" y1="84.13" x2="144.05" y2="94.13"/><line class="cls-1" x1="234.25" y1="84.13" x2="144.05" y2="94.13"/><line class="cls-1" x1="53.85" y1="84.13" x2="144.05" y2="114.83"/><line class="cls-1" x1="234.25" y1="84.13" x2="144.05" y2="114.83"/><line class="cls-1" x1="108.05" y1="343.53" x2="144.05" y2="114.83"/><line class="cls-1" x1="180.85" y1="344.03" x2="144.05" y2="114.83"/><line class="cls-1" x1="54.05" y1="292.53" x2="108.05" y2="343.53"/><line class="cls-1" x1="234.05" y1="292.53" x2="180.85" y2="344.03"/><line class="cls-1" x1="111.05" y1="324.43" x2="143.95" y2="343.53"/><line class="cls-1" x1="177.65" y1="324.13" x2="143.95" y2="343.53"/></svg>