<svg id="レイヤー_1" data-name="レイヤー 1" xmlns="http://www.w3.org/2000/svg" xmlns:xlink="http://www.w3.org/1999/xlink" viewBox="0 0 140.73 140.73"><defs><style>.cls-1{fill:none;}.cls-2{clip-path:url(#clip-path);}.cls-3{fill:#0c9aca;}</style><clipPath id="clip-path" transform="translate(-569.74 -441.06)"><path class="cls-1" d="M675.35,498c0,.68,0,1.36,0,2,0,20.93-15.94,45.07-45.07,45.07A44.84,44.84,0,0,1,606,538a32.4,32.4,0,0,0,3.78.22,31.8,31.8,0,0,0,19.68-6.78,15.86,15.86,0,0,1-14.8-11,15.75,15.75,0,0,0,7.16-.27,15.85,15.85,0,0,1-12.71-15.53v-.2a15.75,15.75,0,0,0,7.17,2,15.85,15.85,0,0,1-4.9-21.15,45,45,0,0,0,32.65,16.55,15.85,15.85,0,0,1,27-14.45,31.7,31.7,0,0,0,10.06-3.85,15.89,15.89,0,0,1-7,8.76,31.64,31.64,0,0,0,9.1-2.5A32.11,32.11,0,0,1,675.35,498Z"/></clipPath></defs><title>twitter</title><g class="cls-2"><path class="cls-3" d="M608.23,448.72l-30.83,30.83a69.85,69.85,0,0,0-3.9,9.23l44-44A69.49,69.49,0,0,0,608.23,448.72Z" transform="translate(-569.74 -441.06)"/><path class="cls-3" d="M624.56,442.81l-53.07,53.07q-.72,3.19-1.14,6.48L631,441.67Q627.75,442.09,624.56,442.81Z" transform="translate(-569.74 -441.06)"/><path class="cls-3" d="M640.13,441.06c-1.17,0-2.32,0-3.47.09L569.83,508c-.06,1.15-.09,2.31-.09,3.47,0,.64,0,1.27,0,1.9L642,441.11C641.4,441.09,640.77,441.06,640.13,441.06Z" transform="translate(-569.74 -441.06)"/><path class="cls-3" d="M646.85,441.39l-76.79,76.79q.22,2.39.61,4.72L651.57,442C650,441.75,648.44,441.54,646.85,441.39Z" transform="translate(-569.74 -441.06)"/><path class="cls-3" d="M655.84,442.84l-84.32,84.32q.49,2.14,1.1,4.23l87.44-87.44C658.67,443.53,657.26,443.17,655.84,442.84Z" transform="translate(-569.74 -441.06)"/><path class="cls-3" d="M663.92,445.19l-90,90.05q.7,1.94,1.5,3.83l92.38-92.38Q665.86,445.89,663.92,445.19Z" transform="translate(-569.74 -441.06)"/><path class="cls-3" d="M671.24,448.31,577,542.57q.88,1.77,1.85,3.48l95.89-95.89C673.58,449.51,672.42,448.89,671.24,448.31Z" transform="translate(-569.74 -441.06)"/><path class="cls-3" d="M677.91,452.07l-97.16,97.16q1,1.62,2.15,3.18l98.19-98.19Q679.53,453.11,677.91,452.07Z" transform="translate(-569.74 -441.06)"/><path class="cls-3" d="M684,456.42l-98.9,98.9q1.18,1.48,2.43,2.9l99.36-99.36C686,458,685,457.21,684,456.42Z" transform="translate(-569.74 -441.06)"/><path class="cls-3" d="M689.53,461.32,590,560.85c.88.9,1.78,1.77,2.71,2.62L692.15,464C691.3,463.11,690.43,462.21,689.53,461.32Z" transform="translate(-569.74 -441.06)"/><path class="cls-3" d="M694.52,466.77l-99.07,99.07c1,.8,2,1.58,3,2.33l98.4-98.4C696.1,468.75,695.33,467.75,694.52,466.77Z" transform="translate(-569.74 -441.06)"/><path class="cls-3" d="M698.94,472.79l-97.48,97.48q1.62,1.06,3.29,2L701,476.08C700.33,475,699.65,473.86,698.94,472.79Z" transform="translate(-569.74 -441.06)"/><path class="cls-3" d="M702.78,479.38,608.06,574.1q1.77.92,3.61,1.72L704.51,483C704,481.76,703.39,480.56,702.78,479.38Z" transform="translate(-569.74 -441.06)"/><path class="cls-3" d="M706,486.6l-90.72,90.72c1.3.49,2.62,1,4,1.37l88.13-88.13C707,489.22,706.49,487.91,706,486.6Z" transform="translate(-569.74 -441.06)"/><path class="cls-3" d="M708.47,494.56l-85.23,85.23c1.45.36,2.92.66,4.4.93L709.39,499Q709,496.74,708.47,494.56Z" transform="translate(-569.74 -441.06)"/><path class="cls-3" d="M710.05,503.41l-78,78c1.63.19,3.28.32,4.94.39l73.41-73.41C710.37,506.69,710.24,505,710.05,503.41Z" transform="translate(-569.74 -441.06)"/><path class="cls-3" d="M710.47,513.43l-68.36,68.36c1.92-.05,3.83-.17,5.71-.37l62.29-62.28C710.3,517.26,710.42,515.35,710.47,513.43Z" transform="translate(-569.74 -441.06)"/><path class="cls-3" d="M709.18,525.16,653.84,580.5a70.48,70.48,0,0,0,7.12-1.79l46.43-46.43A70.27,70.27,0,0,0,709.18,525.16Z" transform="translate(-569.74 -441.06)"/><path class="cls-3" d="M696.55,553.55a70.22,70.22,0,0,0,7.67-13l-35,35a70.25,70.25,0,0,0,13-7.67Z" transform="translate(-569.74 -441.06)"/></g><path class="cls-3" d="M680,576H667.77a1.5,1.5,0,0,1,0-3H680a1.5,1.5,0,0,1,0,3Zm-24.41,0H643.36a1.5,1.5,0,1,1,0-3h12.21a1.5,1.5,0,0,1,0,3Zm-24.41,0H618.95a1.5,1.5,0,0,1,0-3h12.21a1.5,1.5,0,0,1,0,3Zm-24.41,0H594.54a1.5,1.5,0,0,1,0-3h12.21a1.5,1.5,0,0,1,0,3Zm85.1-1.79a1.5,1.5,0,0,1-.79-2.77,10.45,10.45,0,0,0,5-8.93,1.51,1.51,0,0,1,1.49-1.53,1.47,1.47,0,0,1,1.49,1.47v.05A13.42,13.42,0,0,1,692.62,574,1.46,1.46,0,0,1,691.84,574.21Zm-107.51-3.88a1.52,1.52,0,0,1-1.29-.71,13.49,13.49,0,0,1-2-7.12V557a1.5,1.5,0,1,1,3,0v5.54a10.48,10.48,0,0,0,1.59,5.53,1.5,1.5,0,0,1-.48,2.07A1.47,1.47,0,0,1,584.33,570.33ZM697.5,551.74a1.5,1.5,0,0,1-1.5-1.5V538a1.5,1.5,0,1,1,3,0v12.21A1.5,1.5,0,0,1,697.5,551.74Zm-115-5.49a1.5,1.5,0,0,1-1.5-1.5v-12.2a1.5,1.5,0,0,1,3,0v12.2A1.5,1.5,0,0,1,582.5,546.26Zm115-18.92a1.5,1.5,0,0,1-1.5-1.5V513.63a1.5,1.5,0,0,1,3,0v12.21A1.5,1.5,0,0,1,697.5,527.33Zm-115-5.49a1.5,1.5,0,0,1-1.5-1.5V508.14a1.5,1.5,0,1,1,3,0v12.21A1.5,1.5,0,0,1,582.5,521.85Zm115-18.92a1.5,1.5,0,0,1-1.5-1.5V489.22a1.5,1.5,0,0,1,3,0v12.21A1.5,1.5,0,0,1,697.5,502.92Zm-115-5.49a1.5,1.5,0,0,1-1.5-1.5v-12.2a1.5,1.5,0,0,1,3,0v12.2A1.5,1.5,0,0,1,582.5,497.44Zm115-18.92A1.5,1.5,0,0,1,696,477V471.5a10.45,10.45,0,0,0-1.57-5.55,1.5,1.5,0,0,1,2.54-1.59,13.46,13.46,0,0,1,2,7.14V477A1.5,1.5,0,0,1,697.5,478.51Zm-115-5.5a1.5,1.5,0,0,1-1.51-1.49v0A13.44,13.44,0,0,1,587.38,460a1.5,1.5,0,0,1,1.6,2.55,10.45,10.45,0,0,0-5,8.92A1.52,1.52,0,0,1,582.51,473Zm103-12h-12.2a1.5,1.5,0,0,1,0-3h12.2a1.5,1.5,0,1,1,0,3Zm-24.41,0h-12.2a1.5,1.5,0,0,1,0-3h12.2a1.5,1.5,0,1,1,0,3Zm-24.41,0H624.46a1.5,1.5,0,0,1,0-3h12.21a1.5,1.5,0,0,1,0,3Zm-24.41,0h-12.2a1.5,1.5,0,0,1,0-3h12.2a1.5,1.5,0,0,1,0,3Z" transform="translate(-569.74 -441.06)"/></svg>